<svg height="100px" viewBox="0 0 56 56" width="100" xmlns="http://www.w3.org/2000/svg">
<g id="044---Bank-Statement">
<path id="Rectangle-path" fill="#006203" d="m5.08 18h12.001v2h-12.001z"/>
<circle id="Oval" fill="#006203" cx="7.08" cy="27" r="1"/>
<circle id="Oval" fill="#006203" cx="15.08" cy="41" r="1"/>
<circle id="Oval" fill="#006203" cx="15.08" cy="34" r="1"/>
<circle id="Oval" fill="#006203" cx="15.08" cy="27" r="1"/>
<circle id="Oval" fill="#006203" cx="7.08" cy="34" r="1"/>
<circle id="Oval" fill="#006203" cx="7.08" cy="41" r="1"/>
<path id="Rectangle-path" fill="#006203" d="m45.182 17.322h8v1.999h-8z" transform="matrix(.408 -.913 .913 .408 12.379 55.739)"/>
<path id="Shape" fill="#006203" d="m53.348 23.282c1.5106388-.5775941 2.5248186-2.008039 2.5699023-3.6247059.0450838-1.6166669-.8878008-3.1014093-2.3639023-3.7622941l-3.266 7.3c.9674829.4363495 2.069288.4676753 3.06.087z"/>
<path id="Shape" fill="#006203" d="m33.159 10.06 5.477 2.449c.3261835.145943.5497298.4548167.5864312.8102714s-.1190179.7034883-.4085.913-.6687477.2486716-.9949312.1027286l-5.477-2.449-1.224 2.738 13.692 6.124 1.225-2.739-4.564-2.041c-.3261835-.1457644-.5498251-.454473-.5866812-.8098384-.0368561-.3553653.1186726-.703399.408-.913s.6684977-.248926.9946812-.1031616l4.565 2.041 1.224-2.738-13.692-6.124z"/>
<path id="Shape" fill="#006203" d="m28.064 11.654 1.453 1.649 2.815-6.286h-2.197z"/>
<path id="Shape" fill="#006203" d="m22.078 52.009h-21.896c.47354509 2.3272226 2.52309555 3.9972422 4.898 3.991l19.02.0000174c-1.0823699-1.080674-1.7908641-2.4790917-2.022-3.9910174z"/>
<path id="Shape" fill="#006203" d="m34 28.165v-10.06l-4.612-2.063c-.511-.365.94 1.207-8.342-9.307-.2550435-.30088882-.3164794-.72075262-.1583367-1.08210028.1581428-.36134766.5082568-.60109783.9023367-.61789972 12.666.002 12.053.065 12.11-.035l.1.013c-.0057031-1.88602716.7517438-3.69416103 2.1-5.013h-19.02c-2.7600532.00330612-4.9966939 2.23994685-5 5v7h8c1.6568542 0 3 1.3431458 3 3v30c0 1.6568542-1.3431458 3-3 3h-8v2h10c.7235664-.0013717 1.3904411.3914712 1.74 1.025.1814566.4193211.3123768.858743.39 1.309.4484658 1.6672056 1.7327118 2.9805869 3.3894391 3.4663343 1.6567274.4857474 3.4468461.0737604 4.7245609-1.0873343-4.2648847-3.2308021-6.6265772-8.3841434-6.2894693-13.7239638.3371078-5.3398204 3.3281374-10.1552393 7.9654693-12.8240362z"/>
<path id="Shape" fill="#006203" d="m43 48.893c1.72-.335 3-1.5 3-2.893s-1.28-2.558-3-2.893z"/>
<path id="Shape" fill="#006203" d="m27.9 7.127c.059-.114.5-.078-3.894-.078l2.606 2.959z"/>
<path id="Shape" fill="#006203" d="m20.08 46c.5522847 0 1-.4477153 1-1v-30c0-.5522847-.4477153-1-1-1h-18c-.55228475 0-1 .4477153-1 1v30c0 .5522847.44771525 1 1 1zm-13-2c-1.65685425 0-3-1.3431458-3-3s1.34314575-3 3-3 3 1.3431458 3 3-1.34314575 3-3 3zm0-7c-1.65685425 0-3-1.3431458-3-3s1.34314575-3 3-3 3 1.3431458 3 3-1.34314575 3-3 3zm0-7c-1.65685425 0-3-1.3431458-3-3s1.34314575-3 3-3 3 1.3431458 3 3-1.34314575 3-3 3zm8 14c-1.6568542 0-3-1.3431458-3-3s1.3431458-3 3-3 3 1.3431458 3 3-1.3431458 3-3 3zm0-7c-1.6568542 0-3-1.3431458-3-3s1.3431458-3 3-3 3 1.3431458 3 3-1.3431458 3-3 3zm0-7c-1.6568542 0-3-1.3431458-3-3s1.3431458-3 3-3 3 1.3431458 3 3-1.3431458 3-3 3zm-12-12c0-1.1045695.8954305-2 2-2h12c1.1045695 0 2 .8954305 2 2v2c0 1.1045695-.8954305 2-2 2h-12c-1.1045695 0-2-.8954305-2-2z"/>
<path id="Shape" fill="#006203" d="m42 28c-7.7319865 0-14 6.2680135-14 14s6.2680135 14 14 14 14-6.2680135 14-14c-.0082673-7.7285595-6.2714405-13.9917327-14-14zm-8.626 8.878c-1.6606894 2.8738981-1.8261661 6.3742531-.444 9.392.1643012.3266382.1372357.7169059-.0705813 1.0177372-.207817.3008314-.5632498.46426-.9268951.426188-.3636453-.0380719-.6775214-.2715741-.8185236-.6089252-1.6558489-3.6087427-1.4578852-7.7965491.531-11.233.2777992-.4774502.8900498-.6392992 1.3675-.3615s.6392992.8900498.3615 1.3675zm14.626 9.122c0 2.472-2.167 4.526-5 4.925v1.075c0 .5522847-.4477153 1-1 1s-1-.4477153-1-1v-1.075c-2.833-.4-5-2.453-5-4.925 0-.5522847.4477153-1 1-1s1 .4477153 1 1c0 1.394 1.28 2.558 3 2.893v-5.968c-2.833-.4-5-2.453-5-4.925s2.167-4.526 5-4.925v-1.075c0-.5522847.4477153-1 1-1s1 .4477153 1 1v1.075c2.833.4 5 2.453 5 4.925 0 .5522847-.4477153 1-1 1s-1-.4477153-1-1c0-1.394-1.28-2.558-3-2.893v5.968c2.833.399 5 2.453 5 4.925zm4.355-10.128c1.9888852 3.4364509 2.1868489 7.6242573.531 11.233-.1410022.3373511-.4548783.5708533-.8185236.6089252-.3636453.038072-.7190781-.1253566-.9268951-.426188-.207817-.3008313-.2348825-.691099-.0705813-1.0177372 1.3821661-3.0177469 1.2166894-6.5181019-.444-9.392-.1797046-.3088561-.1809857-.6901222-.0033608-1.000179.177625-.3100568.5071705-.5017993.8645-.503s.6881562.1883229.8678608.497179z"/>
<path id="Shape" fill="#006203" d="m38 38c0 1.394 1.28 2.558 3 2.893v-5.786c-1.72.335-3 1.499-3 2.893z"/></g></svg>